<svg width="93" height="71" viewBox="0 0 93 71" fill="none" xmlns="http://www.w3.org/2000/svg">
<rect y="50" width="93" height="13" rx="2" fill="black"/>
<rect x="25" y="41" width="28" height="6" rx="3" fill="black"/>
<rect x="46" y="42.2633" width="7" height="25" rx="3" transform="rotate(-2.15593 46 42.2633)" fill="black"/>
<rect x="34" y="44" width="7" height="25" rx="3" fill="black"/>
<rect x="7" y="58" width="8" height="13" rx="2" fill="black"/>
<rect x="78" y="58" width="8" height="13" rx="2" fill="black"/>
<rect x="25" y="17" width="15" height="30" rx="3" fill="black"/>
<rect x="53.522" y="3.34949" width="5" height="24.4698" rx="2.5" transform="rotate(50 53.522 3.34949)" fill="black"/>
<rect x="9.38647" y="7.47632" width="5" height="23.746" rx="2.5" transform="rotate(-50 9.38647 7.47632)" fill="black"/>
<ellipse cx="33" cy="7" rx="6" ry="7" fill="black"/>
<rect x="5" y="24" width="11" height="39" rx="2" fill="black"/>
<rect x="30" y="9" width="5" height="10" rx="2" fill="black"/>
</svg>
